<svg width="240" height="234" viewBox="0 0 240 234" fill="none" xmlns="http://www.w3.org/2000/svg">
<path fill-rule="evenodd" clip-rule="evenodd" d="M3.15933 46.5306C3.15933 36.3781 10.5482 28.08 19.5561 28.08H219.531C228.557 28.08 235.946 36.3781 235.946 46.5306V212.216C235.946 222.369 228.557 230.667 219.531 230.667H19.5561C10.5482 230.667 3.15933 222.369 3.15933 212.216V46.5286V46.5306Z" stroke="#FF4A64" stroke-width="4" stroke-linecap="round" stroke-linejoin="round"/>
<path d="M186.268 52.6519C180.268 52.6519 175.391 47.4607 175.391 41.0345V15.1136C175.391 8.70517 180.268 3.49622 186.268 3.49622C192.268 3.49622 197.144 8.70517 197.144 15.1136V41.0345C197.144 47.4607 192.268 52.6519 186.268 52.6519" stroke="#FF4A64" stroke-width="4"/>
<path fill-rule="evenodd" clip-rule="evenodd" d="M186.268 52.6519C180.268 52.6519 175.391 47.4607 175.391 41.0345V15.1136C175.391 8.70517 180.268 3.49622 186.268 3.49622C192.268 3.49622 197.144 8.70517 197.144 15.1136V41.0345C197.144 47.4607 192.268 52.6519 186.268 52.6519Z" fill="white" stroke="#FF4A64" stroke-width="4" stroke-linecap="round" stroke-linejoin="round"/>
<path d="M53.2406 52.6519C47.2406 52.6519 42.3639 47.4607 42.3639 41.0345V15.1136C42.3639 8.70517 47.2406 3.49622 53.2426 3.49622C59.2426 3.49622 64.1174 8.70517 64.1174 15.1136V41.0345C64.1174 47.4607 59.2406 52.6519 53.2406 52.6519" stroke="#FF4A64" stroke-width="4"/>
<path fill-rule="evenodd" clip-rule="evenodd" d="M53.2406 52.6519C47.2406 52.6519 42.3639 47.4607 42.3639 41.0345V15.1136C42.3639 8.70517 47.2406 3.49622 53.2426 3.49622C59.2426 3.49622 64.1174 8.70517 64.1174 15.1136V41.0345C64.1174 47.4607 59.2406 52.6519 53.2406 52.6519Z" fill="white" stroke="#FF4A64" stroke-width="4" stroke-linecap="round" stroke-linejoin="round"/>
<path d="M3.15933 81.0052H236.343" stroke="#FF4A64" stroke-width="4"/>
<path d="M3.15933 81.0052H235M184.436 143.597V115.417H210.801M132.523 143.597V115.417H158.904M80.6085 143.597V115.417H106.991M28.6957 143.597V115.417H55.078M184.436 200.884V172.723H210.801M132.523 200.884V172.723H158.904M80.6085 200.884V172.723H106.991M28.6957 200.884V172.723H55.078" stroke="#FF4A64" stroke-width="4" stroke-linecap="round" stroke-linejoin="round"/>
</svg>
