<svg width="360" height="357" viewBox="0 0 360 357" fill="none" xmlns="http://www.w3.org/2000/svg">
<path fill-rule="evenodd" clip-rule="evenodd" d="M43.3812 80.0956L45.366 81.0777C45.876 80.0319 46.32 78.9501 46.686 77.8575L44.5908 77.1483C44.256 78.146 43.8492 79.1376 43.3812 80.0956ZM59.0244 65.1942C60.0876 65.4706 61.1508 65.7555 62.2116 66.0512L62.7984 63.9044C61.7268 63.6063 60.654 63.319 59.58 63.039L59.0244 65.1942ZM65.3856 66.9563C66.4416 67.2677 67.494 67.5862 68.5428 67.9156L69.198 65.788C68.1384 65.4562 67.074 65.1341 66.006 64.8192L65.3856 66.9563ZM52.6164 63.6111C53.6856 63.8611 54.756 64.116 55.8252 64.3804L56.352 62.218C55.272 61.9535 54.192 61.6951 53.1144 61.4427L52.6164 63.6111ZM45.3912 74.0687L47.5656 74.4774C47.7732 73.3511 47.9196 72.1936 48.0012 71.042L45.7968 70.8857C45.7212 71.9531 45.5844 73.0253 45.3912 74.0699V74.0687ZM71.6832 68.9289C72.726 69.2775 73.764 69.6357 74.8008 70.0035L75.5364 67.9047C74.4876 67.5321 73.4328 67.1679 72.3768 66.8157L71.682 68.9289H71.6832ZM46.1544 57.4628L44.0568 58.172C44.4036 59.2081 44.7024 60.2563 44.9496 61.2852L46.422 60.9282L46.17 62.2012C47.2476 62.4175 48.324 62.6459 49.3944 62.8815L49.8684 60.7058C48.8904 60.4919 47.9124 60.2827 46.9284 60.082C46.7028 59.2117 46.4436 58.3331 46.1544 57.4628ZM45.5544 64.4598C45.7068 65.5344 45.8064 66.6138 45.846 67.6692L48.054 67.585C48.012 66.4515 47.9076 65.2952 47.7444 64.1448L45.5544 64.4598ZM42.8088 28.7405L18.3456 5.68698L52.9584 24.2906L42.8088 28.7417V28.7405ZM41.568 29.8716L38.124 38.9373L36.7068 30.9282L36.6828 30.9174L36.6804 30.915L36.6828 30.9042L36.6744 30.9078L21.2496 10.5816L41.6076 29.7695L41.568 29.8716ZM31.9548 34.2073L35.4768 32.9861L36.5808 39.2125L36.8004 40.4266L36.9876 41.4819L31.9548 34.2073ZM20.1576 36.6438L15.2736 5.49585L15.246 5.32998L35.112 31.4451L20.1576 36.6438ZM15.7656 2.50763L12.9852 1.01953L13.4796 4.14839L18.6156 36.8902L18.9048 38.7485L20.6652 38.1355L30.3888 34.753L37.5756 44.8043V44.8007V44.8043L38.436 42.5349L39.588 39.5058L43.0632 30.3536L53.5848 25.7415L56.544 24.4325L53.6952 22.9035L15.7656 2.50883V2.50763ZM111.667 91.0725C112.47 91.8117 113.257 92.569 114.031 93.3419L115.589 91.7636C114.794 90.9691 113.986 90.189 113.159 89.4317L111.667 91.0725ZM117.919 94.2037L116.293 95.7111C116.857 96.3277 117.41 96.954 117.956 97.5934L119.632 96.1402C119.071 95.4839 118.499 94.8372 117.919 94.2037ZM106.668 86.8306C107.527 87.5037 108.377 88.1936 109.21 88.9004L110.635 87.1984C109.778 86.4723 108.907 85.7644 108.023 85.0732L106.667 86.8306H106.668ZM84 73.6216C85.008 74.0603 86.0088 74.5098 87.0024 74.9726L87.9312 72.9532C86.9208 72.4808 85.9008 72.0241 84.876 71.5781L84 73.6216ZM77.8956 71.1418C78.9216 71.5336 79.9452 71.9339 80.9628 72.3462L81.7896 70.2835C80.7576 69.8628 79.7196 69.4541 78.6744 69.0587L77.8944 71.1418H77.8956ZM101.35 82.9841C102.262 83.5923 103.16 84.2174 104.046 84.858L105.335 83.0502C104.428 82.3927 103.506 81.752 102.574 81.1294L101.35 82.9841ZM89.9688 76.4042C90.9528 76.8947 91.9272 77.3983 92.8932 77.9164L93.9312 75.9511C92.9472 75.4234 91.9548 74.9101 90.9516 74.4089L89.9688 76.4042ZM95.7672 79.5151C96.7152 80.0632 97.6584 80.6257 98.5872 81.2027L99.7464 79.3083C98.7984 78.7181 97.8372 78.1423 96.8664 77.5822L95.7672 79.5151ZM36.6564 58.4977C35.508 58.3895 34.3764 58.315 33.2916 58.2718L33.204 60.4955C34.2504 60.5376 35.3436 60.6109 36.4536 60.7131L36.6576 58.4977H36.6564ZM16.554 60.6806C15.4764 61.0893 14.4192 61.5497 13.4124 62.0509L14.3916 64.0463C15.3336 63.5775 16.3236 63.1447 17.3328 62.7637L16.5528 60.6806H16.554ZM39.8988 85.4326L41.58 86.875C42.3264 85.9951 43.0224 85.06 43.6524 84.0972L41.8068 82.8723C41.226 83.7594 40.584 84.6212 39.8988 85.4326ZM23.1432 58.8752C22.0224 59.0735 20.8992 59.3247 19.8096 59.6228L20.388 61.7708C21.414 61.4908 22.47 61.254 23.526 61.0665L23.1432 58.8752ZM16.536 94.1052C17.6436 94.5343 18.7632 94.8769 19.8624 95.1245L20.3424 92.9512C19.35 92.7289 18.3384 92.4175 17.3328 92.0281L16.536 94.1052ZM23.4336 93.3719L23.3364 95.5957C23.6196 95.6101 23.9028 95.6149 24.186 95.6149C25.0692 95.6149 25.962 95.5524 26.844 95.4298L26.5416 93.2253C25.512 93.3683 24.4752 93.4188 23.4336 93.3719ZM11.6064 65.6233L10.4184 63.7458C9.438 64.3744 8.4996 65.0584 7.626 65.7772L9.0252 67.5009C9.8304 66.8373 10.7004 66.2051 11.6052 65.6233H11.6064ZM3.1008 74.8524L1.116 73.8692C0.492 75.1517 0.1236 76.3045 0 77.3983L2.196 77.6531C2.292 76.8189 2.5872 75.9018 3.1008 74.8524ZM5.1276 86.6803C6.0336 87.4808 6.8832 88.1912 7.7268 88.8559L9.0876 87.1034C8.2788 86.4663 7.4604 85.7788 6.5844 85.0071L5.1276 86.6815V86.6803ZM5.0964 68.1488C4.2948 69.0046 3.5568 69.9157 2.8992 70.8557L4.7088 72.1359C5.304 71.2824 5.976 70.4542 6.7044 69.6765L5.0964 68.15V68.1488ZM0.6 81.2327C1.044 82.2424 1.7124 83.2389 2.6424 84.2799L4.2864 82.7894C3.5136 81.9275 2.9688 81.1222 2.6208 80.3312L0.6 81.2327ZM10.4748 90.8705C11.4564 91.5316 12.4428 92.1315 13.4028 92.6495L14.448 90.6878C13.5504 90.2022 12.6264 89.6421 11.7048 89.0206L10.4748 90.8705ZM38.1192 46.6506C38.7516 47.5401 39.3552 48.4537 39.9156 49.3672L41.7948 48.1976C41.2092 47.242 40.578 46.2864 39.9156 45.3536L38.1192 46.6506ZM43.3128 59.4004C42.2088 59.2081 41.1036 59.035 39.9984 58.8836L39.6996 61.0893C40.7808 61.2383 41.8596 61.4066 42.9372 61.5941L43.3128 59.4004ZM29.9568 60.4606L29.9088 58.2345C28.7592 58.2597 27.618 58.3234 26.5212 58.4268L26.724 60.6421C27.7692 60.546 28.8576 60.4859 29.9568 60.4618V60.4606ZM44.9328 54.2594C44.4948 53.2293 44.0028 52.1895 43.4748 51.169L41.5152 52.1979C42.0192 53.1704 42.4848 54.1584 42.9024 55.1381L44.934 54.2606L44.9328 54.2594ZM35.2116 89.719L36.4716 91.5485C37.4112 90.8946 38.322 90.1626 39.1788 89.3764L37.6908 87.7297C36.9048 88.4509 36.0708 89.1204 35.2116 89.719ZM29.5884 92.5317L30.2544 94.6533C31.344 94.3059 32.4324 93.86 33.4848 93.3311L32.496 91.3405C31.5468 91.8177 30.5676 92.218 29.5884 92.5305V92.5317Z" fill="#FF4A64"/>
<path fill-rule="evenodd" clip-rule="evenodd" d="M356.928 183.619C356.928 185.646 355.29 187.295 353.278 187.295H208.505V108.53C208.505 95.9272 201.521 84.5982 190.277 78.9643L190.375 78.5436H224.432V118.031C224.432 121.625 227.336 124.55 230.905 124.55C234.474 124.55 237.378 121.626 237.378 118.031V78.5448H327.492C329.99 78.5448 332.459 78.8525 334.83 79.4608C343.294 81.6244 350.305 87.3941 354.065 95.289C354.806 96.8251 355.412 98.4346 355.87 100.072C356.573 102.627 356.928 105.262 356.928 107.907V183.621V183.619ZM300.552 312.462L304.188 309.444L288.92 353.66H277.566L277.823 352.109C281.275 331.146 293.544 318.272 300.551 312.462H300.552ZM268.874 353.027L268.486 353.66H256.874L257.082 352.145C260.239 329.042 268.261 305.564 272.762 293.627L274.481 289.068L275.302 293.874C279.739 319.848 277.697 338.644 268.874 353.027ZM274.602 353.467L274.576 353.66H271.984L272.176 353.325C273.365 351.258 274.442 349.07 275.377 346.823L275.797 346.958C275.309 349.058 274.907 351.25 274.602 353.467ZM253.778 281.131C253.57 280.529 253 280.124 252.359 280.124L252.235 280.127C251.554 280.187 250.999 280.704 250.886 281.383C250.735 282.321 249.9 283.916 248.552 286.444C247.076 289.212 245.053 293.004 243.004 298.008L242.579 297.924V190.313H277.2V285.44L276.764 285.486L276.402 283.767C276.264 283.123 275.736 282.647 275.092 282.581C275.039 282.577 274.987 282.573 274.936 282.573C274.331 282.573 273.805 282.921 273.563 283.481C273.464 283.706 263.752 306.207 257.587 333.038L257.155 332.948C260.574 314.398 259.468 297.45 253.777 281.131H253.778ZM248.798 352.763L248.491 353.66H236.911L236.906 352.333C236.759 315.072 246.494 296.724 250.654 288.886L252.24 285.898L253.098 289.176C258.21 308.712 256.804 329.512 248.8 352.763H248.798ZM253.892 353.466L253.868 353.66H251.64L251.741 353.364C253.272 348.885 254.549 344.582 255.534 340.574L255.966 340.671C255.107 345.07 254.408 349.376 253.892 353.466ZM205.507 112.302H133.264V108.115C133.264 91.8079 146.437 78.5424 162.628 78.5424H175.732C192.15 78.5424 205.507 91.9954 205.507 108.529V112.304V112.302ZM205.507 179.078L177.39 158.839C177.106 158.633 176.772 158.526 176.425 158.526C175.89 158.526 175.384 158.787 175.073 159.224C174.54 159.974 174.713 161.023 175.457 161.558L205.507 183.189V187.295H120.847L151.514 165.35C151.876 165.091 152.116 164.707 152.19 164.264C152.263 163.826 152.162 163.383 151.906 163.017C151.595 162.578 151.09 162.315 150.551 162.315C150.206 162.315 149.873 162.422 149.591 162.624L117.276 185.748V117.175L164.809 155.069C165.102 155.301 165.468 155.43 165.841 155.43C166.222 155.43 166.595 155.296 166.89 155.055L205.507 123.315V179.078ZM181.646 231.475C177.002 240.656 166.757 246.136 154.238 246.136C152.243 246.136 150.2 245.993 148.166 245.711L135.958 244.02C126.694 242.738 118.717 238.42 115.146 232.748C113.191 229.642 112.652 226.432 113.54 223.204L113.612 222.983L134.465 190.313H204.452L181.646 231.475ZM204.404 115.648V119.903L165.822 151.612L120.71 115.646H204.404V115.648ZM227.431 49.4139H234.379V118.03C234.379 119.959 232.822 121.529 230.905 121.529C228.989 121.529 227.431 119.959 227.431 118.031V49.4127V49.4139ZM228.068 46.3944H264.86V22.9346H228.068V46.3932V46.3944ZM222.396 353.658L207.122 309.425L210.752 312.422C217.76 318.21 230.035 331.063 233.495 352.109L233.749 353.66H222.397L222.396 353.658ZM358.757 99.2604C358.253 97.449 357.583 95.67 356.766 93.974C352.621 85.2761 344.896 78.9186 335.569 76.5314C332.956 75.8631 330.238 75.5229 327.492 75.5229H237.378V49.4151H265.328C266.723 49.4151 267.858 48.2719 267.858 46.868V22.4634C267.858 21.0606 266.723 19.9175 265.328 19.9175H225.932C225.104 19.9175 224.432 20.5954 224.432 21.4272V75.5229H176.784L176.255 75.5362L175.732 75.5241H162.628C144.784 75.5241 130.267 90.1431 130.267 108.115V112.302H115.937C115.23 112.302 114.6 112.753 114.368 113.423L114.348 113.548C114.317 113.656 114.296 113.76 114.278 113.976V188.805C114.278 189.638 114.95 190.313 115.874 190.313H116.095V190.696L116.629 190.313H130.901L110.964 221.548C110.892 221.661 110.834 221.784 110.794 221.913C109.49 226.099 110.119 230.403 112.615 234.365C116.705 240.862 125.279 245.59 135.55 247.01L147.761 248.703C149.926 249.002 152.101 249.154 154.225 249.154C167.875 249.154 179.122 243.063 184.315 232.852L207.886 190.313H239.581L239.572 307.765C236.66 317.524 234.852 328.589 234.196 340.65L233.767 340.71C225.473 315.785 205.924 305.242 205.096 304.806C204.882 304.693 204.642 304.635 204.4 304.635C204.041 304.635 203.692 304.766 203.422 305.002C202.954 305.411 202.781 306.052 202.984 306.64L219.22 353.66H124.164C123.338 353.66 122.665 354.336 122.665 355.169C122.665 356.002 123.337 356.678 124.165 356.678H341.5C342.326 356.678 342.998 356.002 342.998 355.169C342.998 354.336 342.326 353.66 341.498 353.66H292.097L308.333 306.64C308.534 306.051 308.364 305.409 307.897 305.003C307.625 304.766 307.277 304.635 306.916 304.635C306.676 304.635 306.436 304.693 306.223 304.807C305.561 305.153 289.903 313.542 280.62 333.067L280.2 332.97V326.742C280.747 321.006 280.747 314.718 280.2 308.041V190.315H353.28C356.945 190.315 359.928 187.311 359.928 183.619V107.904C359.928 104.988 359.534 102.079 358.758 99.2604H358.757Z" fill="#0157FF"/>
</svg>
