<svg width="51" height="73" viewBox="0 0 51 73" fill="none" xmlns="http://www.w3.org/2000/svg">
<path fill-rule="evenodd" clip-rule="evenodd" d="M25.411 1C38.893 1 49.83 12.03 49.83 25.64C49.83 31.52 48.963 35.6 45.648 40.946C42.34 46.3 25.41 71.116 25.41 71.116C25.41 71.116 8.49 46.3 5.175 40.946C1.86 35.6 0.992996 31.52 0.999996 25.641C0.999996 12.029 11.93 1 25.411 1ZM25.426 16.897H25.398C20.481 16.897 16.487 20.669 16.473 25.903C16.466 31.131 20.453 34.931 25.37 34.931H25.454C30.371 34.931 34.358 31.131 34.351 25.903C34.344 20.669 30.343 16.897 25.426 16.897Z" fill="#FF4A64" stroke="#FF4A64" stroke-width="2"/>
</svg>
