<svg width="240" height="223" viewBox="0 0 240 223" fill="none" xmlns="http://www.w3.org/2000/svg">
<path d="M209.783 113.654H172.68M66.6857 113.654H29.5847H66.6857Z" stroke="#FF4A64" stroke-width="4" stroke-linejoin="round"/>
<path fill-rule="evenodd" clip-rule="evenodd" d="M3.09143 193.183C3.09143 179.555 13.6876 166.604 29.581 166.604V77.8252C13.6876 77.8252 3.09143 89.4136 3.09143 103.058V193.183V193.183ZM236.286 193.183C236.286 179.555 225.672 166.604 209.779 166.604V77.8252C225.672 77.8252 236.286 89.4136 236.286 103.057V193.181V193.183Z" stroke="#FF4A64" stroke-width="4" stroke-linejoin="round"/>
<path d="M236.286 193.133C236.286 207.449 224.356 219.531 209.665 219.531H29.7009C15.0076 219.531 3.09711 207.417 3.09711 193.101" stroke="#FF4A64" stroke-width="4" stroke-linejoin="round"/>
<path fill-rule="evenodd" clip-rule="evenodd" d="M119.653 39.5244H119.718C131.385 39.5244 140.878 48.3853 140.893 60.6808C140.91 72.9573 131.45 81.883 119.785 81.883H119.587C107.922 81.883 98.4629 72.9573 98.4781 60.6789C98.5105 48.3853 107.989 39.5244 119.653 39.5244Z" stroke="#FF4A64" stroke-width="4"/>
<path fill-rule="evenodd" clip-rule="evenodd" d="M119.684 2.18799C151.669 2.18799 177.615 28.0922 177.615 60.0632C177.615 73.8701 175.558 83.4534 167.693 96.01C159.848 108.588 119.684 166.873 119.684 166.873C119.684 166.873 79.539 108.588 71.6762 96.01C63.8114 83.4534 61.7543 73.8701 61.7714 60.0632C61.7695 28.0922 87.699 2.18799 119.684 2.18799Z" stroke="#FF4A64" stroke-width="4"/>
</svg>
