<svg width="240" height="190" viewBox="0 0 240 190" fill="none" xmlns="http://www.w3.org/2000/svg">
<g clip-path="url(#clip0)">
<path fill-rule="evenodd" clip-rule="evenodd" d="M40.8865 99.2126H40.9306C48.7951 99.2126 55.1951 105.265 55.2065 113.664C55.2163 122.052 48.8392 128.15 40.9763 128.15H40.8441C32.978 128.15 26.6008 122.052 26.6123 113.664C26.6351 105.265 33.0237 99.2126 40.8865 99.2126V99.2126Z" stroke="#FF4A64" stroke-width="4"/>
<path fill-rule="evenodd" clip-rule="evenodd" d="M40.9077 73.707C62.4702 73.707 79.9608 91.4032 79.9608 113.243C79.9608 122.676 78.573 129.221 73.2734 137.801C67.9836 146.39 40.9077 186.208 40.9077 186.208C40.9077 186.208 13.8449 146.39 8.54365 137.799C3.24079 129.221 1.85467 122.676 1.8661 113.243C1.8661 91.4032 19.3469 73.707 40.9077 73.707Z" stroke="#FF4A64" stroke-width="4"/>
<path fill-rule="evenodd" clip-rule="evenodd" d="M205.889 21.5994H205.923C212.163 21.5994 217.241 26.3363 217.251 32.9093C217.259 39.4741 212.199 44.2438 205.959 44.2438H205.853C199.613 44.2438 194.553 39.4741 194.562 32.9093C194.58 26.3363 199.649 21.5994 205.889 21.5994V21.5994Z" stroke="#FF4A64" stroke-width="4"/>
<path fill-rule="evenodd" clip-rule="evenodd" d="M205.905 1.63794C223.014 1.63794 236.893 15.4866 236.893 32.5785C236.893 39.9606 235.793 45.0841 231.587 51.7979C227.388 58.52 205.905 89.6833 205.905 89.6833C205.905 89.6833 184.433 58.5184 180.225 51.7963C176.018 45.0841 174.919 39.9606 174.927 32.5801C174.927 15.4866 188.797 1.63794 205.905 1.63794Z" stroke="#FF4A64" stroke-width="4"/>
<path d="M39.4171 186.724H192.857C206.398 186.724 217.376 175.711 217.376 162.126C217.376 148.541 206.398 137.527 192.857 137.527H128.253C115.195 137.527 104.611 126.907 104.611 113.807C104.611 100.707 115.195 90.0862 128.253 90.0862H206.805" stroke="#FF4A64" stroke-width="4" stroke-linecap="round"/>
</g>
<defs>
<clipPath id="clip0">
<rect width="240" height="190" fill="white"/>
</clipPath>
</defs>
</svg>
