<svg width="240" height="260" viewBox="0 0 240 260" fill="none" xmlns="http://www.w3.org/2000/svg">
<path d="M172.536 222.915H199.985" stroke="#FF4A64" stroke-width="4" stroke-linecap="round" stroke-linejoin="round"/>
<path d="M232.702 256.655L236.945 194.586C237.803 182.177 228.478 170.424 216.228 168.468L163.991 160.067L139.505 239.525L129.004 184.961L139.739 159.433M100.536 159.435L111.273 184.962L100.755 239.529L76.3023 160.075L24.0492 168.456C11.7974 170.428 2.47477 182.181 3.33444 194.575L7.57379 256.659M76.2295 99.2235C68.0341 99.2235 61.2689 93.019 60.2243 84.9905C59.4512 79.2232 59.0459 73.2216 59.0459 67.0663H59.0125C59.0125 31.7063 86.3764 3.04321 120.138 3.04321C153.895 3.04321 181.259 31.7082 181.259 67.0682C181.259 73.2235 180.856 79.2252 180.098 85.0102C179.04 93.019 172.291 99.2235 164.095 99.2235M94.4322 132.578L76.2905 160.081M145.847 132.578L163.989 160.081" stroke="#FF4A64" stroke-width="4" stroke-linecap="round" stroke-linejoin="round"/>
<path d="M74.6026 69.6504C66.8282 70.0877 60.6177 76.4951 60.6177 84.4034C60.6177 92.5816 67.2472 99.2077 75.4269 99.2077C76.2531 99.2077 77.0419 99.1072 77.817 98.9713C84.4977 126.171 100.906 145.411 120.142 145.411C139.361 145.411 155.768 126.171 162.45 98.9733C163.224 99.1072 163.999 99.2096 164.805 99.2096C172.985 99.2096 179.614 92.5816 179.614 84.4034C179.614 76.4951 173.437 70.1034 165.665 69.6504" stroke="#FF4A64" stroke-width="4"/>
<path d="M74.6026 69.6504C66.8282 70.0877 60.6177 76.4951 60.6177 84.4034C60.6177 92.5816 67.2491 99.2096 75.4288 99.2096C76.2531 99.2096 77.0419 99.1072 77.817 98.9733C84.4996 126.171 100.906 145.411 120.142 145.411C139.361 145.411 155.768 126.171 162.45 98.9733C163.226 99.1072 163.999 99.2096 164.807 99.2096C172.985 99.2096 179.616 92.5816 179.616 84.4034C179.616 76.4951 173.439 70.1034 165.665 69.6504" stroke="#FF4A64" stroke-width="4" stroke-linecap="round" stroke-linejoin="round"/>
<path d="M165.667 69.6917C160.163 71.1591 154.29 71.9687 148.198 71.9687C123.628 71.9687 102.659 59.0356 94.4302 40.8416" stroke="#FF4A64" stroke-width="4" stroke-linecap="round" stroke-linejoin="round"/>
</svg>
