<svg width="808" height="244" viewBox="0 0 808 244" fill="none" xmlns="http://www.w3.org/2000/svg">
<rect width="808" height="244" fill="#E5E5E5"/>
<path d="M1308 -3968V-3294.2C1308 -3240.43 1308 -3213.55 1297.54 -3193.02C1288.33 -3174.95 1273.65 -3160.27 1255.58 -3151.06C1235.05 -3140.6 1208.17 -3140.6 1154.4 -3140.6H861.6C807.835 -3140.6 780.952 -3140.6 760.417 -3130.14C742.353 -3120.93 727.667 -3106.25 718.463 -3088.18C708 -3067.65 708 -3040.76 708 -2987V-34.4751C708 19.29 708 46.1725 697.537 66.708C688.333 84.7716 673.647 99.4577 655.583 108.662C635.048 119.125 608.165 119.125 554.4 119.125H261.6C207.835 119.125 180.952 119.125 160.417 129.588C142.353 138.792 127.667 153.478 118.463 171.542C108 192.077 108 218.96 108 272.725L108 850.4C108 904.165 108 931.048 118.463 951.583C127.667 969.647 142.353 984.333 160.417 993.537C180.952 1004 207.835 1004 261.6 1004H652" stroke="#FF4A64" stroke-width="5" stroke-linejoin="round" stroke-dasharray="25 20"/>
</svg>
