<svg width="606" height="970" viewBox="0 0 606 970" fill="none" xmlns="http://www.w3.org/2000/svg">
<path d="M603 0V0C603 51.3136 603 76.9704 593.444 96.7539C584.019 116.268 568.268 132.019 548.754 141.444C528.97 151 503.314 151 452 151H156.6C102.835 151 75.9524 151 55.4169 161.463C37.3534 170.667 22.6672 185.353 13.4634 203.417C3 223.952 3 250.835 3 304.6L3 813.4C3 867.165 3 894.048 13.4634 914.583C22.6672 932.647 37.3534 947.333 55.4169 956.537C75.9524 967 102.835 967 156.6 967H547" stroke="#FF4A64" stroke-width="5" stroke-dasharray="25 20"/>
</svg>
