<svg width="161" height="48" viewBox="0 0 161 48" fill="none" xmlns="http://www.w3.org/2000/svg">
<path fill-rule="evenodd" clip-rule="evenodd" d="M156.822 14.9389C156.372 14.9389 155.945 14.8465 155.539 14.7132L152.212 25.2994H142.203H141.909H131.901L128.571 14.7052C128.195 14.8162 127.806 14.894 127.395 14.894C125.063 14.894 123.175 12.9883 123.175 10.6396C123.175 8.29091 125.063 6.38739 127.395 6.38739C129.725 6.38739 131.615 8.29049 131.615 10.6396C131.615 12.1938 130.778 13.5386 129.544 14.2823C131.147 15.9205 133.651 17.7068 136.381 16.6907C138.629 15.855 140.758 11.1798 141.481 8.59275C139.42 8.3031 137.829 6.51266 137.829 4.32622C137.829 1.93841 139.72 0 142.053 0C144.388 0 146.28 1.93841 146.28 4.32622C146.28 6.51308 144.691 8.29932 142.632 8.59065C143.357 11.1798 145.483 15.855 147.731 16.6911C150.472 17.7093 152.984 15.9088 154.585 14.2642C153.423 13.5067 152.648 12.182 152.648 10.6648C152.648 8.30352 154.515 6.39033 156.823 6.39033C159.13 6.39033 161 8.30394 161 10.6648C161 13.0257 159.129 14.9389 156.822 14.9389ZM132.641 27.5048H151.559C153.299 27.5048 154.712 28.523 154.712 30.2663C154.712 32.0076 153.299 31.7099 151.559 31.7099C151.559 31.7099 146.829 31.7099 142.1 31.7099C137.371 31.7099 132.641 31.7099 132.641 31.7099C130.901 31.7099 129.489 32.0076 129.489 30.2663C129.489 28.523 130.901 27.5048 132.641 27.5048Z" fill="white"/>
<path d="M25.5062 6.51602L14.5392 31.5292H11.0027L0 6.51602H3.85808L12.8603 27.0625L21.9339 6.51602H25.5062Z" fill="white"/>
<path d="M28.6951 6.51602H32.2674V31.5292H28.6951V6.51602Z" fill="white"/>
<path d="M49.5061 6.51602C52.7452 6.51602 55.2933 7.29024 57.1509 8.83867C59.0084 10.3871 59.9372 12.5192 59.9372 15.2349C59.9372 17.9506 59.0084 20.0827 57.1509 21.6311C55.2933 23.1795 52.7452 23.9538 49.5061 23.9538H43.3261V31.5292H39.7538V6.51602H49.5061ZM49.399 20.845C51.6613 20.845 53.3882 20.3685 54.5788 19.4157C55.7694 18.439 56.3649 17.0454 56.3649 15.2349C56.3649 13.4244 55.7694 12.0427 54.5788 11.0899C53.3882 10.1132 51.6613 9.6248 49.399 9.6248H43.3261V20.845H49.399Z" fill="white"/>
<path d="M82.4772 5.01526V31.5292H79.1907V28.5276C78.4283 29.5758 77.4638 30.3738 76.2971 30.9217C75.13 31.4696 73.844 31.7436 72.439 31.7436C70.605 31.7436 68.9617 31.3386 67.5093 30.5287C66.0564 29.7187 64.9132 28.5872 64.0799 27.134C63.27 25.6571 62.8653 23.9657 62.8653 22.0599C62.8653 20.1542 63.27 18.4747 64.0799 17.0216C64.9132 15.5684 66.0564 14.4369 67.5093 13.6269C68.9617 12.817 70.605 12.412 72.439 12.412C73.7965 12.412 75.0468 12.674 76.1899 13.1981C77.3331 13.6984 78.2854 14.4488 79.0478 15.4493V5.01526H82.4772ZM72.7248 28.742C73.9154 28.742 74.9989 28.468 75.9756 27.9201C76.9519 27.3484 77.7138 26.5623 78.2619 25.5618C78.8095 24.5374 79.0835 23.3701 79.0835 22.0599C79.0835 20.7497 78.8095 19.5943 78.2619 18.5938C77.7138 17.5695 76.9519 16.7833 75.9756 16.2354C74.9989 15.6875 73.9154 15.4136 72.7248 15.4136C71.5102 15.4136 70.4146 15.6875 69.4383 16.2354C68.4855 16.7833 67.7236 17.5695 67.152 18.5938C66.604 19.5943 66.3304 20.7497 66.3304 22.0599C66.3304 23.3701 66.604 24.5374 67.152 25.5618C67.7236 26.5623 68.4855 27.3484 69.4383 27.9201C70.4146 28.468 71.5102 28.742 72.7248 28.742Z" fill="white"/>
<path d="M92.2523 15.7709C92.8478 14.6751 93.7291 13.8413 94.8958 13.2696C96.0629 12.6979 97.48 12.412 99.1468 12.412V15.7352C98.9564 15.7113 98.6946 15.6994 98.3609 15.6994C96.5033 15.6994 95.0387 16.2593 93.967 17.3789C92.9192 18.4747 92.3952 20.047 92.3952 22.0956V31.5292H88.9658V12.5907H92.2523V15.7709Z" fill="white"/>
<path d="M120.895 12.5907L112.608 31.5292H109.107L100.819 12.5907H104.391L110.893 27.7772L117.537 12.5907H120.895Z" fill="white"/>
<path d="M79.6307 39.0962L75.76 47.9243H74.5118L70.6285 39.0962H71.9902L75.1674 46.3479L78.3699 39.0962H79.6307Z" fill="white"/>
<path d="M80.7562 39.0962H82.0173V47.9243H80.7562V39.0962Z" fill="white"/>
<path d="M88.1013 39.0962C89.2444 39.0962 90.1438 39.3694 90.7994 39.9159C91.455 40.4624 91.7828 41.2149 91.7828 42.1734C91.7828 43.1319 91.455 43.8844 90.7994 44.4309C90.1438 44.9774 89.2444 45.2507 88.1013 45.2507H85.9201V47.9243H84.6592V39.0962H88.1013ZM88.0634 44.1534C88.8619 44.1534 89.4713 43.9853 89.8916 43.649C90.3119 43.3043 90.522 42.8124 90.522 42.1734C90.522 41.5344 90.3119 41.0468 89.8916 40.7105C89.4713 40.3657 88.8619 40.1934 88.0634 40.1934H85.9201V44.1534H88.0634Z" fill="white"/>
<path d="M98.8967 40.1934H95.8708V39.0962H103.171V40.1934H100.145V47.9243H98.8967V40.1934Z" fill="white"/>
<path d="M109.717 44.6201C109.717 44.7126 109.709 44.8345 109.692 44.9858H104.271C104.346 45.5744 104.603 46.0494 105.04 46.4109C105.485 46.7641 106.036 46.9406 106.691 46.9406C107.49 46.9406 108.133 46.6716 108.62 46.1335L109.289 46.9154C108.986 47.2685 108.608 47.5376 108.154 47.7225C107.708 47.9075 107.208 48 106.654 48C105.948 48 105.321 47.8571 104.775 47.5712C104.229 47.2769 103.804 46.8692 103.502 46.3479C103.207 45.8266 103.06 45.238 103.06 44.5822C103.06 43.9348 103.203 43.3505 103.489 42.8292C103.783 42.3079 104.182 41.9044 104.687 41.6185C105.199 41.3242 105.775 41.1771 106.414 41.1771C107.053 41.1771 107.62 41.3242 108.116 41.6185C108.62 41.9044 109.011 42.3079 109.289 42.8292C109.574 43.3505 109.717 43.9475 109.717 44.6201ZM106.414 42.1986C105.834 42.1986 105.347 42.3752 104.952 42.7283C104.565 43.0815 104.338 43.5439 104.271 44.1156H108.557C108.49 43.5523 108.259 43.0941 107.864 42.7409C107.477 42.3794 106.994 42.1986 106.414 42.1986Z" fill="white"/>
<path d="M113.314 48C112.768 48 112.243 47.9285 111.738 47.7856C111.234 47.6343 110.839 47.4451 110.553 47.2181L111.058 46.2596C111.352 46.4698 111.709 46.6379 112.129 46.7641C112.55 46.8902 112.974 46.9532 113.403 46.9532C114.462 46.9532 114.991 46.6506 114.991 46.0452C114.991 45.8434 114.92 45.6837 114.777 45.566C114.634 45.4482 114.453 45.3642 114.235 45.3137C114.025 45.2549 113.722 45.1918 113.327 45.1245C112.789 45.0405 112.348 44.9438 112.003 44.8345C111.667 44.7252 111.377 44.5402 111.133 44.2796C110.889 44.0189 110.768 43.6532 110.768 43.1823C110.768 42.577 111.02 42.0935 111.524 41.732C112.028 41.3621 112.705 41.1771 113.554 41.1771C113.999 41.1771 114.445 41.2317 114.89 41.341C115.336 41.4503 115.702 41.5975 115.987 41.7825L115.47 42.7409C114.924 42.3878 114.281 42.2113 113.541 42.2113C113.029 42.2113 112.638 42.2953 112.369 42.4635C112.1 42.6316 111.965 42.8544 111.965 43.1319C111.965 43.3505 112.041 43.5229 112.192 43.649C112.344 43.7751 112.529 43.8676 112.747 43.9264C112.974 43.9853 113.289 44.0526 113.693 44.1282C114.231 44.2207 114.664 44.3216 114.991 44.4309C115.328 44.5318 115.613 44.7084 115.849 44.9606C116.084 45.2128 116.202 45.566 116.202 46.02C116.202 46.6253 115.941 47.1088 115.42 47.4703C114.907 47.8234 114.205 48 113.314 48Z" fill="white"/>
<path d="M121.472 47.5333C121.295 47.6847 121.076 47.8024 120.816 47.8865C120.555 47.9621 120.286 48 120.009 48C119.337 48 118.815 47.8192 118.446 47.4577C118.076 47.0961 117.891 46.5791 117.891 45.9064V42.2364H116.756V41.2401H117.891V39.7772H119.101V41.2401H121.018V42.2364H119.101V45.856C119.101 46.2175 119.189 46.495 119.366 46.6884C119.551 46.8817 119.811 46.9784 120.148 46.9784C120.517 46.9784 120.833 46.8733 121.093 46.6631L121.472 47.5333Z" fill="white"/>
<path d="M126.497 39.0962H130.217C131.15 39.0962 131.978 39.2811 132.701 39.6511C133.424 40.021 133.983 40.5423 134.378 41.2149C134.781 41.8791 134.983 42.6442 134.983 43.5102C134.983 44.3762 134.781 45.1456 134.378 45.8182C133.983 46.4824 133.424 46.9995 132.701 47.3694C131.978 47.7394 131.15 47.9243 130.217 47.9243H126.497V39.0962ZM130.141 46.8271C130.856 46.8271 131.482 46.6884 132.02 46.4109C132.566 46.1335 132.986 45.7467 133.281 45.2507C133.575 44.7462 133.722 44.1661 133.722 43.5102C133.722 42.8544 133.575 42.2785 133.281 41.7824C132.986 41.278 132.566 40.887 132.02 40.6096C131.482 40.3321 130.856 40.1934 130.141 40.1934H127.758V46.8271H130.141Z" fill="white"/>
<path d="M137.897 42.3626C138.108 41.9758 138.419 41.6816 138.83 41.4798C139.242 41.278 139.742 41.1771 140.331 41.1771V42.35C140.263 42.3416 140.171 42.3374 140.053 42.3374C139.398 42.3374 138.881 42.5349 138.503 42.9301C138.133 43.3169 137.948 43.8718 137.948 44.5949V47.9243H136.737V41.2402H137.897V42.3626Z" fill="white"/>
<path d="M141.823 41.2401H143.033V47.9243H141.823V41.2401ZM142.428 39.9537C142.193 39.9537 141.995 39.8781 141.835 39.7267C141.684 39.5754 141.608 39.3904 141.608 39.1718C141.608 38.9532 141.684 38.7683 141.835 38.6169C141.995 38.4572 142.193 38.3773 142.428 38.3773C142.664 38.3773 142.857 38.453 143.008 38.6043C143.168 38.7472 143.248 38.928 143.248 39.1466C143.248 39.3736 143.168 39.567 143.008 39.7267C142.857 39.8781 142.664 39.9537 142.428 39.9537Z" fill="white"/>
<path d="M151.257 41.2401L148.332 47.9243H147.097L144.172 41.2401H145.432L147.727 46.6001L150.072 41.2401H151.257Z" fill="white"/>
<path d="M158.241 44.6201C158.241 44.7126 158.233 44.8345 158.216 44.9858H152.795C152.87 45.5744 153.127 46.0494 153.564 46.4109C154.009 46.7641 154.56 46.9406 155.215 46.9406C156.014 46.9406 156.657 46.6716 157.144 46.1335L157.813 46.9154C157.51 47.2685 157.132 47.5376 156.678 47.7225C156.232 47.9075 155.732 48 155.178 48C154.472 48 153.845 47.8571 153.299 47.5712C152.753 47.2769 152.328 46.8692 152.026 46.3479C151.731 45.8266 151.584 45.238 151.584 44.5822C151.584 43.9348 151.727 43.3505 152.013 42.8292C152.307 42.3079 152.706 41.9044 153.211 41.6185C153.723 41.3242 154.299 41.1771 154.938 41.1771C155.577 41.1771 156.144 41.3242 156.64 41.6185C157.144 41.9044 157.535 42.3079 157.813 42.8292C158.098 43.3505 158.241 43.9475 158.241 44.6201ZM154.938 42.1986C154.358 42.1986 153.871 42.3752 153.476 42.7283C153.089 43.0815 152.862 43.5439 152.795 44.1156H157.081C157.014 43.5523 156.783 43.0941 156.388 42.7409C156.001 42.3794 155.518 42.1986 154.938 42.1986Z" fill="white"/>
</svg>
